<svg xmlns="http://www.w3.org/2000/svg" width="500" height="500" viewBox="0 0 500 500" version="1.1"><path d="M 220 60.591 C 175.239 64.482, 149.082 70.209, 120 82.486 C 93.049 93.863, 62.180 116.369, 49.288 134.041 C 39.877 146.941, 37.875 153.816, 38.234 172 C 38.492 185.109, 38.598 185.696, 41.895 192.266 C 45.613 199.675, 55.155 209.557, 63.072 214.196 C 68.413 217.326, 79.228 221.112, 83.148 221.223 C 86.925 221.331, 89.246 219.327, 88.013 217.023 C 87.492 216.052, 81.690 212.469, 75.117 209.061 C 61.676 202.092, 56.824 197.966, 53.386 190.581 C 50.499 184.382, 50.437 181.522, 52.972 171.609 C 57.968 152.077, 70.499 137.034, 95 121.159 C 112.079 110.092, 132.028 102.048, 160 94.949 C 192.761 86.634, 223.496 82.959, 260.585 82.922 C 304.192 82.879, 329.606 87.085, 350.415 97.788 C 361.928 103.709, 369.844 111.311, 374.226 120.653 C 376.989 126.545, 377.492 128.850, 377.832 137.184 C 378.305 148.769, 376.632 155.165, 370.747 164.270 C 346.211 202.232, 272.540 236.477, 190.758 247.935 C 182.650 249.071, 174.186 250, 171.951 250 C 166.785 250, 159 248.066, 159 246.782 C 159 245.427, 168.456 229.398, 179.753 211.604 C 206.812 168.984, 228.639 144.022, 247.441 134.196 C 251.568 132.039, 253.835 131.555, 259.750 131.567 C 267.535 131.583, 267.832 131.332, 265.936 126.315 C 263.602 120.138, 256.181 114.909, 245.068 111.612 C 238.021 109.521, 235.574 109.579, 227.649 112.027 C 218.693 114.793, 207.265 122.671, 196.500 133.500 C 179.296 150.806, 172.169 162.580, 171.604 174.628 C 171.176 183.754, 167.588 192.577, 153.912 218.142 C 147.922 229.339, 142.874 238.928, 142.694 239.451 C 142.513 239.974, 140.596 239.541, 138.433 238.490 C 135.797 237.208, 132.293 236.565, 127.808 236.539 C 121.516 236.502, 120.905 236.705, 117.569 239.936 C 113.486 243.890, 112.291 248.322, 113.951 253.353 C 115.309 257.466, 118.145 259.536, 124.700 261.198 C 127.340 261.868, 129.640 262.499, 129.810 262.601 C 129.981 262.704, 127.150 268.715, 123.520 275.961 C 103.935 315.043, 88 356.539, 88 368.454 C 88 373.700, 91.899 376.131, 103.263 377.970 C 109.014 378.900, 109.902 378.782, 114.665 376.457 C 121.126 373.303, 129.719 364.228, 138.489 351.296 C 142.143 345.908, 146.691 339.291, 148.597 336.591 C 150.502 333.892, 151.907 331.220, 151.718 330.654 C 150.713 327.638, 147.652 329.820, 136.100 341.787 C 129.170 348.967, 122.517 355.327, 121.316 355.921 C 118.038 357.540, 115.230 357.230, 113 355 C 110.254 352.254, 110.416 346.591, 113.505 337.391 C 116.892 327.301, 130.134 299.132, 140.953 279 C 150.376 261.467, 151.370 260.517, 155.260 265.325 C 156.228 266.521, 164.965 279.200, 174.677 293.500 C 208.549 343.375, 223.195 361.870, 252.956 392.345 C 286.767 426.968, 321.881 447.140, 364 456.137 C 372.517 457.956, 377.710 458.382, 391.500 458.393 C 407.176 458.405, 409.185 458.195, 417.288 455.696 C 429.802 451.838, 439.454 446.662, 446.291 440.144 C 453.017 433.731, 454.639 430.938, 458.564 419 C 460.982 411.647, 461.355 408.948, 461.328 399 C 461.293 386.124, 459.931 380.752, 455.951 377.800 C 453.351 375.872, 450.543 376.143, 449.674 378.406 C 449.410 379.094, 449.630 381.872, 450.162 384.579 C 451.328 390.506, 450.476 400.924, 448.424 405.836 C 443.923 416.608, 432.576 426.204, 419.542 430.261 C 413.429 432.163, 410.192 432.453, 395 432.457 C 379.940 432.462, 376.175 432.133, 368 430.099 C 352.729 426.301, 339.610 421.398, 322.308 413.020 C 299.362 401.910, 287.963 393.895, 259.860 369.109 C 242.111 353.455, 222.222 331.018, 187.076 287 C 163.402 257.350, 164.132 259.303, 176.643 259.100 C 188.791 258.903, 216.649 255.537, 235.500 251.989 C 290.139 241.706, 331.131 224.360, 360.464 199.110 C 374.657 186.892, 382.802 175.548, 387.645 161.253 C 391.066 151.158, 391.506 134.631, 388.585 126 C 380.914 103.336, 363.494 85.912, 338.500 75.904 C 325.461 70.683, 300.214 65.107, 277.543 62.442 C 265.564 61.034, 228.588 59.844, 220 60.591" stroke="none" fill="#14152d" fill-rule="evenodd"/><path d="M 218 41.590 C 189.389 44.085, 174.477 46.243, 156.422 50.500 C 135.158 55.515, 111.737 64.288, 95.260 73.411 C 54.131 96.184, 29.734 120.285, 21.476 146.302 C 19.285 153.204, 19.003 155.855, 19.024 169.302 C 19.053 186.746, 19.754 190.672, 24.679 200.927 C 30.873 213.826, 47.798 229.139, 62.749 235.371 C 72.522 239.445, 82.348 241.222, 88.652 240.057 C 91.657 239.501, 94.491 238.815, 94.950 238.531 C 95.409 238.247, 95.342 239.925, 94.803 242.258 C 92.754 251.113, 95.872 263.963, 101.414 269.505 L 103.957 272.048 97.414 286.185 C 83.489 316.274, 75.326 337.417, 71.427 353.500 C 67.377 370.207, 68.375 377.864, 75.659 385.966 C 80.879 391.771, 86.738 394.437, 98.885 396.534 C 109.584 398.380, 115.894 397.601, 124.197 393.411 C 131.448 389.752, 145.099 375.783, 153.428 363.500 C 157.158 358, 162.170 350.672, 164.567 347.216 C 173.517 334.309, 173.070 324.096, 163.138 314.565 C 159.479 311.055, 158.388 310.583, 153.019 310.195 C 149.708 309.956, 147 309.597, 147 309.399 C 147 309.200, 148.423 306.151, 150.163 302.623 L 153.326 296.209 167.640 317.136 C 192.743 353.839, 210.571 376.011, 236.789 403.134 C 244.330 410.936, 255 421.105, 260.500 425.731 C 293.711 453.667, 335.610 472.585, 374.209 477.073 C 389.800 478.885, 409.392 477.813, 420.444 474.543 C 452.101 465.175, 467.804 451.909, 475.808 427.769 C 480.031 415.034, 481.381 405.535, 480.627 393.863 C 479.778 380.722, 476.957 371.994, 471.724 366.317 C 465.834 359.926, 460.922 357.645, 452.987 357.614 C 444.660 357.581, 438.796 360.592, 434.394 367.160 C 430.569 372.868, 429.611 378.341, 431.050 386.277 C 432.436 393.918, 431.741 397.676, 427.986 402.860 C 422.522 410.403, 411.620 413.935, 393.657 413.980 C 370.616 414.038, 332.134 399.937, 305.808 381.789 C 294.518 374.006, 272.932 355.863, 262.032 344.995 C 251.953 334.946, 228.070 307.573, 214.047 290 C 209.439 284.225, 205.062 278.782, 204.320 277.905 C 203.105 276.469, 204.244 276.138, 215.735 274.579 C 265.318 267.857, 315.038 252.161, 346.270 233.373 C 362.441 223.644, 382.406 206.419, 391.324 194.500 C 398.418 185.019, 405.044 171.410, 407.634 161 C 410.466 149.618, 410.242 130.864, 407.158 121.043 C 398.127 92.281, 375.665 69.914, 342.732 56.887 C 330.931 52.219, 301.550 45.984, 279.500 43.468 C 266.823 42.022, 226.993 40.805, 218 41.590 M 220 60.591 C 175.239 64.482, 149.082 70.209, 120 82.486 C 93.049 93.863, 62.180 116.369, 49.288 134.041 C 39.877 146.941, 37.875 153.816, 38.234 172 C 38.492 185.109, 38.598 185.696, 41.895 192.266 C 45.613 199.675, 55.155 209.557, 63.072 214.196 C 68.413 217.326, 79.228 221.112, 83.148 221.223 C 86.925 221.331, 89.246 219.327, 88.013 217.023 C 87.492 216.052, 81.690 212.469, 75.117 209.061 C 61.676 202.092, 56.824 197.966, 53.386 190.581 C 50.499 184.382, 50.437 181.522, 52.972 171.609 C 57.968 152.077, 70.499 137.034, 95 121.159 C 112.079 110.092, 132.028 102.048, 160 94.949 C 192.761 86.634, 223.496 82.959, 260.585 82.922 C 304.192 82.879, 329.606 87.085, 350.415 97.788 C 361.928 103.709, 369.844 111.311, 374.226 120.653 C 376.989 126.545, 377.492 128.850, 377.832 137.184 C 378.305 148.769, 376.632 155.165, 370.747 164.270 C 346.211 202.232, 272.540 236.477, 190.758 247.935 C 182.650 249.071, 174.186 250, 171.951 250 C 166.785 250, 159 248.066, 159 246.782 C 159 245.427, 168.456 229.398, 179.753 211.604 C 206.812 168.984, 228.639 144.022, 247.441 134.196 C 251.568 132.039, 253.835 131.555, 259.750 131.567 C 267.535 131.583, 267.832 131.332, 265.936 126.315 C 263.602 120.138, 256.181 114.909, 245.068 111.612 C 238.021 109.521, 235.574 109.579, 227.649 112.027 C 218.693 114.793, 207.265 122.671, 196.500 133.500 C 179.296 150.806, 172.169 162.580, 171.604 174.628 C 171.176 183.754, 167.588 192.577, 153.912 218.142 C 147.922 229.339, 142.874 238.928, 142.694 239.451 C 142.513 239.974, 140.596 239.541, 138.433 238.490 C 135.797 237.208, 132.293 236.565, 127.808 236.539 C 121.516 236.502, 120.905 236.705, 117.569 239.936 C 113.486 243.890, 112.291 248.322, 113.951 253.353 C 115.309 257.466, 118.145 259.536, 124.700 261.198 C 127.340 261.868, 129.640 262.499, 129.810 262.601 C 129.981 262.704, 127.150 268.715, 123.520 275.961 C 103.935 315.043, 88 356.539, 88 368.454 C 88 373.700, 91.899 376.131, 103.263 377.970 C 109.014 378.900, 109.902 378.782, 114.665 376.457 C 121.126 373.303, 129.719 364.228, 138.489 351.296 C 142.143 345.908, 146.691 339.291, 148.597 336.591 C 150.502 333.892, 151.907 331.220, 151.718 330.654 C 150.713 327.638, 147.652 329.820, 136.100 341.787 C 129.170 348.967, 122.517 355.327, 121.316 355.921 C 118.038 357.540, 115.230 357.230, 113 355 C 110.254 352.254, 110.416 346.591, 113.505 337.391 C 116.892 327.301, 130.134 299.132, 140.953 279 C 150.376 261.467, 151.370 260.517, 155.260 265.325 C 156.228 266.521, 164.965 279.200, 174.677 293.500 C 208.549 343.375, 223.195 361.870, 252.956 392.345 C 286.767 426.968, 321.881 447.140, 364 456.137 C 372.517 457.956, 377.710 458.382, 391.500 458.393 C 407.176 458.405, 409.185 458.195, 417.288 455.696 C 429.802 451.838, 439.454 446.662, 446.291 440.144 C 453.017 433.731, 454.639 430.938, 458.564 419 C 460.982 411.647, 461.355 408.948, 461.328 399 C 461.293 386.124, 459.931 380.752, 455.951 377.800 C 453.351 375.872, 450.543 376.143, 449.674 378.406 C 449.410 379.094, 449.630 381.872, 450.162 384.579 C 451.328 390.506, 450.476 400.924, 448.424 405.836 C 443.923 416.608, 432.576 426.204, 419.542 430.261 C 413.429 432.163, 410.192 432.453, 395 432.457 C 379.940 432.462, 376.175 432.133, 368 430.099 C 352.729 426.301, 339.610 421.398, 322.308 413.020 C 299.362 401.910, 287.963 393.895, 259.860 369.109 C 242.111 353.455, 222.222 331.018, 187.076 287 C 163.402 257.350, 164.132 259.303, 176.643 259.100 C 188.791 258.903, 216.649 255.537, 235.500 251.989 C 290.139 241.706, 331.131 224.360, 360.464 199.110 C 374.657 186.892, 382.802 175.548, 387.645 161.253 C 391.066 151.158, 391.506 134.631, 388.585 126 C 380.914 103.336, 363.494 85.912, 338.500 75.904 C 325.461 70.683, 300.214 65.107, 277.543 62.442 C 265.564 61.034, 228.588 59.844, 220 60.591 M 275.445 106.393 C 281.395 112.343, 285.094 120.298, 285.758 128.576 C 286.196 134.029, 285.898 135.682, 283.661 140.216 C 279.601 148.444, 270.787 152.869, 262.280 150.950 C 256.759 149.705, 250.411 153.589, 238.500 165.500 C 226.947 177.053, 216.939 189.870, 202.285 211.880 C 190.029 230.287, 189.633 229.551, 209.623 225.496 C 247.531 217.806, 285.504 204.791, 309.393 191.298 C 331.501 178.812, 351.126 161.883, 356.328 150.812 C 361.417 139.980, 358.883 127.171, 350.243 120.049 C 337.913 109.885, 315.111 103.801, 283.721 102.300 L 270.731 101.678 275.445 106.393 M 185.500 108.622 C 139.072 117.833, 106.584 132.177, 86.385 152.383 C 78.059 160.711, 74.404 166.518, 71.653 175.793 C 69.343 183.579, 70.280 184.864, 83.178 191.593 C 102.071 201.449, 107.239 206.989, 107.416 217.576 L 107.500 222.652 112.282 220.257 C 115.530 218.631, 119.691 217.644, 125.256 217.181 L 133.448 216.500 142.793 198 C 151.797 180.174, 152.149 179.227, 152.451 172 C 152.830 162.924, 156.029 154.351, 162.853 144.120 C 169.332 134.407, 181.959 119.989, 190.197 112.899 C 197.817 106.341, 197.670 106.208, 185.500 108.622" stroke="none" fill="#3ba3ca" fill-rule="evenodd"/></svg>