<svg width="418" height="394" viewBox="0 0 418 394" fill="none" xmlns="http://www.w3.org/2000/svg" style="">
<path d="M345.5 391C342.167 391 338.833 390.833 335.5 390.5C332.167 390.167 328.667 389.667 325 389C302.333 384.667 281.833 377.167 263.5 366.5C245.167 355.833 228.667 343.333 214 329C199.667 315 186.5 300.167 174.5 284.5C162.833 268.833 152.167 253.833 142.5 239.5C132.833 224.833 123.833 212 115.5 201C114.833 199.333 114 198.833 113 199.5C112.333 200.167 112 200.5 112 200.5C104.667 214.5 97.8333 227.667 91.5 240C85.5 252 81 261.667 78 269C75.3333 276.333 74 281.5 74 284.5C74 289.167 75.8333 291.5 79.5 291.5C84.1667 291.5 89.1667 288.333 94.5 282C98.1667 277.667 101.5 273.667 104.5 270C107.833 266 110.667 264.333 113 265C113.333 265.333 113.5 265.833 113.5 266.5C113.5 268.167 112.333 270.5 110 273.5C107.667 276.167 106.333 277.667 106 278C103.667 281.333 100.5 285.833 96.5 291.5C92.8333 297.167 88.8333 302.167 84.5 306.5C80.5 311.167 76.1667 313.5 71.5 313.5C70.8333 313.5 68.8333 313.167 65.5 312.5C62.5 311.833 59.5 311 56.5 310C53.8333 309 52.3333 307.833 52 306.5C51.3333 300.167 52.8333 291.333 56.5 280C60.5 268.333 65.8333 255.5 72.5 241.5C79.1667 227.5 86 213.833 93 200.5C87.6667 199.167 83.8333 198 81.5 197C78.1667 194.667 76.5 191.5 76.5 187.5C76.5 184.167 77.8333 181.167 80.5 178.5C83.1667 175.833 87.1667 174.5 92.5 174.5C94.1667 174.5 96.1667 174.833 98.5 175.5C100.833 176.167 102.667 177.333 104 179C109.667 169 114.667 159.833 119 151.5C123.667 143.167 127 136.667 129 132C131 128.333 132.333 125.333 133 123C133.667 120.333 134 118.333 134 117C134 115 133.667 113.333 133 112C133.667 108 136 102.667 140 96C144.333 89.3333 149.667 82.6667 156 76C162.333 69.3333 169.167 63.8333 176.5 59.5C183.833 54.8333 190.667 52.5 197 52.5C199 52.5 202 53.1666 206 54.5C210.333 55.5 214.333 57.1667 218 59.5C222 61.8333 224.5 65.1666 225.5 69.5C225.833 70.5 226 71.5 226 72.5C226 73.5 225.667 74 225 74C224.333 74 223.333 73.8333 222 73.5C221 72.8333 220.167 72.5 219.5 72.5C210.167 72.5 199.667 78.1667 188 89.5C176.667 100.5 165 114.667 153 132C141.333 149.333 130.333 167.333 120 186C121.667 186.333 123.5 186.833 125.5 187.5C127.833 187.833 130.5 188 133.5 188C134.833 188 136 188 137 188C138.333 188 139.667 187.833 141 187.5C162.333 185.167 184 181 206 175C228.333 169 249.167 161.167 268.5 151.5C287.833 141.833 303.833 130.5 316.5 117.5C328.167 105.167 334 92.5 334 79.5C334 69.8333 330.333 60.8333 323 52.5C315.667 44.1666 304.167 37.8333 288.5 33.5C279.167 30.8333 268.5 28.8333 256.5 27.5C244.833 26.1667 232.167 25.5 218.5 25.5C197.167 25.5 175.167 27.3333 152.5 31C130.167 34.6666 109.167 40.3333 89.5 48C69.8333 55.3333 53.3333 64.6667 40 76C26.6667 87.3333 18.6667 100.833 16 116.5C15 124.5 16.5 130.833 20.5 135.5C24.5 140.167 29.3333 143.833 35 146.5C41 148.833 45.6667 151 49 153C51.3333 155 52.5 156.667 52.5 158C52.5 160.333 50.3333 161.167 46 160.5C41.3333 159.5 35.5 157.167 28.5 153.5C21.8333 149.833 15.8333 144.833 10.5 138.5C5.5 131.833 3 124.167 3 115.5C3 114.167 3 112.833 3 111.5C3.33333 110.167 3.66667 108.833 4 107.5C4 107.167 3.83333 106.167 3.5 104.5C3.5 102.5 3.5 100.833 3.5 99.5C5.5 89.1667 10.5 79.5 18.5 70.5C26.8333 61.1667 36.1667 53 46.5 46C57.1667 38.6666 67 32.8333 76 28.5C91.6667 20.8333 110.5 14.8333 132.5 10.5C154.5 5.8333 177.5 3.49997 201.5 3.49997C216.167 3.49997 230.667 4.49998 245 6.49999C259.667 8.49999 273.833 11.6667 287.5 16C306.5 22.3333 321.167 32.1667 331.5 45.5C342.167 58.5 347 72.1666 346 86.5C345 100.167 340.167 112.5 331.5 123.5C323.167 134.5 312.333 144.167 299 152.5C286 160.5 271.5 167.5 255.5 173.5C239.833 179.167 224 183.833 208 187.5C195 190.167 181.333 192.333 167 194C152.667 195.667 139.167 196.833 126.5 197.5C140.833 215.167 155 233 169 251C183.333 268.667 198.5 285.333 214.5 301C230.833 316.667 248.667 330 268 341C287.333 352.333 309.167 360.333 333.5 365C338.5 366 343.667 366.5 349 366.5C357.667 366.5 366.167 365.167 374.5 362.5C383.167 359.833 390.333 355.667 396 350C401.667 344.333 404.5 336.833 404.5 327.5C404.5 325.833 404.333 324.167 404 322.5C404 320.833 403.833 319.167 403.5 317.5C403.5 316.833 403.333 316.333 403 316C403 315.667 403 315.333 403 315C403 312 404.167 310.5 406.5 310.5C409.833 310.5 412 313 413 318C414 323 414.5 327.667 414.5 332C414.5 337 414 341.667 413 346C412.333 350.333 411.333 354.333 410 358C407 367.333 399.333 375.167 387 381.5C375 387.833 361.167 391 345.5 391Z" stroke="#5AB9F0" stroke-width="6" class="ePhFWBHn_0"></path>
<style data-made-with="vivus-instant">.ePhFWBHn_0{stroke-dasharray:3072 3074;stroke-dashoffset:3073;animation:ePhFWBHn_draw 2996ms ease-in-out 0ms forwards;}@keyframes ePhFWBHn_draw{100%{stroke-dashoffset:0;}}@keyframes ePhFWBHn_fade{0%{stroke-opacity:1;}94.44444444444444%{stroke-opacity:1;}100%{stroke-opacity:0;}}</style></svg>
